:SAMPLES-PER-SECOND 30
:FULLY-SPECIFIED
:DEGREES
195
root  40.2107 38.5651 -27.8402 2.41463 31.8312 11.5911
RightUpLeg  5.79433 7.43971 -9.85998
RightLeg  47.2527 5.74324 6.21414
RightFoot  2.50971 -0.455136 4.09403
RightToes  -4.65663e-010 0 -3.6325e-017
Spine  1.75606 1.04098 -0.578759
Spine1  10.3372 2.58016 -5.98152
HEad  7.36216 -10.1386 3.4887
LeftShoulder1  8.13193 -10.9475 -49.1114
LeftArm  -5.17447 26.8007 -26.9532
LeftForeArm  32.075 -6.38457 -6.58608
LeftHand  -0.244104 0.0205437 5.32207
RightShoulder  6.23026 9.4392 41.8795
RightArm  0.160515 -4.2964 36.8977
RightForeArm  9.45234 11.1751 7.4308
RightHand  -0.791116 0.734569 -15.0683
LeftUpLeg  -13.3294 13.8635 -2.30267
LeftLeg  18.6135 -1.46159 -0.303982
LeftFoot  0.503387 0.643081 -6.21213
LeftToes  -7.27628e-011 -1.6005e-012 -1.37987e-011
196
root  41.2429 38.6676 -27.0976 1.71605 29.0123 11.327
RightUpLeg  -1.27243 6.93146 -10.7359
RightLeg  56.7016 1.95926 2.72332
RightFoot  11.1867 -0.64571 3.67454
RightToes  -4.65663e-010 0 -3.6325e-017
Spine  3.17658 0.995107 -1.01944
Spine1  9.9857 2.36054 -6.02898
HEad  6.62564 -9.40129 2.40019
LeftShoulder1  8.31194 -11.2698 -49.1067
LeftArm  -5.26867 23.478 -24.8761
LeftForeArm  31.5702 -7.2013 -6.52371
LeftHand  -0.244104 0.0205437 5.32207
RightShoulder  6.31148 9.65435 41.7207
RightArm  -5.60813 -4.8257 35.9648
RightForeArm  12.9499 4.57166 7.13907
RightHand  -0.64251 -0.400133 -14.936
LeftUpLeg  -10.9305 15.0925 -2.24886
LeftLeg  19.6774 0.101165 0.179583
LeftFoot  -2.46341 0.430491 -5.37366
LeftToes  -7.27628e-011 -1.6005e-012 -1.37987e-011
197
root  42.2172 38.9322 -26.3018 0.641479 26.2267 10.3165
RightUpLeg  -7.37725 5.02452 -10.3054
RightLeg  62.4851 -1.17144 -2.90787
RightFoot  11.3508 -0.210293 1.3712
RightToes  -4.65663e-010 0 -3.6325e-017
Spine  4.43781 0.786574 -0.984851
Spine1  9.75564 1.90545 -5.18593
HEad  5.54112 -8.40479 1.0783
LeftShoulder1  8.33346 -11.3929 -48.827
LeftArm  -6.17256 19.8513 -23.0355
LeftForeArm  30.6088 -7.97445 -6.23852
LeftHand  -0.244104 0.0205437 5.32207
RightShoulder  6.37839 9.8228 41.6237
RightArm  -5.36968 -5.92219 34.2986
RightForeArm  14.118 2.34567 6.81846
RightHand  -0.564662 -0.896501 -14.5463
LeftUpLeg  -7.53896 15.8758 -1.16566
LeftLeg  18.7461 1.85116 0.294029
LeftFoot  -3.60713 0.359169 -4.99698
LeftToes  -7.27628e-011 -1.6005e-012 -1.37987e-011
198
root  43.1312 39.2628 -25.447 -0.268173 23.9869 9.01619
RightUpLeg  -12.2455 1.4614 -8.86728
RightLeg  63.6587 -2.54306 -6.13613
RightFoot  6.56127 0.0676476 -0.0985848
RightToes  -4.65663e-010 0 -3.6325e-017
Spine  5.35907 0.239607 -0.969098
Spine1  9.47504 1.01964 -3.70441
HEad  4.64807 -7.3636 0.185517
LeftShoulder1  8.20795 -11.3436 -48.2474
LeftArm  -7.41046 16.4424 -21.0841
LeftForeArm  28.5691 -8.84845 -5.88778
LeftHand  -0.244104 0.0205437 5.32207
RightShoulder  6.31207 9.77509 41.3159
RightArm  -3.37546 -7.77293 32.4872
RightForeArm  15.7984 3.47581 7.24051
RightHand  -0.568111 -0.712918 -14.0762
LeftUpLeg  -3.83835 15.5123 0.332402
LeftLeg  16.8066 4.43659 0.0997332
LeftFoot  -4.58692 0.322284 -4.99744
LeftToes  -7.27628e-011 -1.6005e-012 -1.37987e-011
199
root  43.9747 39.5066 -24.5629 -0.797165 22.1045 7.728
RightUpLeg  -16.394 -2.40038 -6.72684
RightLeg  60.6757 -2.61863 -5.58648
RightFoot  3.07581 -0.0115634 0.260566
RightToes  -4.65663e-010 0 -3.6325e-017
Spine  6.12282 -0.474838 -0.995401
Spine1  8.9505 -0.0533047 -2.45374
HEad  4.1466 -6.40082 -0.0804626
LeftShoulder1  8.00763 -11.249 -47.3593
LeftArm  -8.69233 13.6161 -18.9428
LeftForeArm  25.6634 -10.0294 -5.51794
LeftHand  -0.244104 0.0205437 5.32207
RightShoulder  6.07938 9.49461 40.5963
RightArm  -0.856958 -10.2892 31.1029
RightForeArm  16.0943 6.65294 7.80249
RightHand  -0.551137 -0.611127 -13.3686
LeftUpLeg  -0.421044 13.7964 1.71994
LeftLeg  14.6716 8.11305 -0.476248
LeftFoot  -5.90414 0.285815 -5.2771
LeftToes  -7.27628e-011 -1.6005e-012 -1.37987e-011
200
root  44.7712 39.6577 -23.6529 -1.13882 20.0789 6.61046
RightUpLeg  -19.7662 -5.49381 -4.08805
RightLeg  54.5354 -2.75156 -4.53842
RightFoot  1.67579 -0.0294808 0.344741
RightToes  -4.65663e-010 0 -3.6325e-017
Spine  7.02934 -1.13234 -0.908941
Spine1  8.10031 -0.974897 -1.62302
HEad  3.80235 -5.5492 0.0975793
LeftShoulder1  7.77748 -11.1454 -46.2994
LeftArm  -10.0109 11.3813 -16.6843
LeftForeArm  22.7997 -11.5285 -5.07893
LeftHand  -0.244104 0.0205437 5.32207
RightShoulder  5.81105 9.18258 39.6848
RightArm  2.26286 -12.9569 30.0579
RightForeArm  13.3699 10.3959 7.94873
RightHand  -0.516687 -0.63281 -12.5989
LeftUpLeg  2.96553 11.1155 2.76398
LeftLeg  12.1424 12.5894 -1.57318
LeftFoot  -6.85097 0.263255 -5.66084
LeftToes  -7.27628e-011 -1.6005e-012 -1.37987e-011
201
root  45.5138 39.664 -22.7075 -1.33858 17.8879 6.1732
RightUpLeg  -21.7965 -8.53157 -1.66854
RightLeg  45.7796 -3.76733 -4.43165
RightFoot  -0.577569 0.0419433 -0.495737
RightToes  -4.65663e-010 0 -3.6325e-017
Spine  8.07916 -1.63088 -1.49979
Spine1  7.25153 -1.7362 -0.997662
HEad  3.2411 -4.89639 0.626769
LeftShoulder1  7.57455 -11.052 -45.3508
LeftArm  -11.2984 9.44307 -14.1174
LeftForeArm  20.4566 -13.2128 -4.62019
LeftHand  -0.244104 0.0205437 5.32207
RightShoulder  5.60952 8.98787 38.8276
RightArm  5.59137 -15.2236 29.2269
RightForeArm  8.71863 13.63 7.4268
RightHand  -0.533913 -0.391196 -12.4042
LeftUpLeg  6.02666 8.71992 2.84631
LeftLeg  10.282 16.9443 -2.57838
LeftFoot  -7.74715 0.224885 -5.66584
LeftToes  -7.27628e-011 -1.6005e-012 -1.37987e-011
202
root  46.2113 39.5342 -21.679 -1.36972 16.1133 6.36098
RightUpLeg  -22.5167 -13.7478 0.713844
RightLeg  34.5428 -4.88365 -4.1253
RightFoot  -2.89251 0.0580967 -1.03675
RightToes  -4.65663e-010 0 -3.6325e-017
Spine  8.66871 -2.13272 -2.7867
Spine1  6.91824 -2.52431 -0.364128
HEad  2.31464 -4.72754 1.5634
LeftShoulder1  7.4579 -11.0368 -44.6726
LeftArm  -12.4621 7.50525 -11.101
LeftForeArm  18.4799 -14.9066 -4.25815
LeftHand  -0.244104 0.0205437 5.32207
RightShoulder  5.44441 8.84226 38.052
RightArm  6.90568 -16.979 28.7152
RightForeArm  5.49557 15.6358 6.79793
RightHand  -0.600284 -0.00933798 -12.9853
LeftUpLeg  8.69776 7.44846 2.04182
LeftLeg  9.35242 20.128 -2.9477
LeftFoot  -9.05044 0.165108 -5.56222
LeftToes  -7.27628e-011 -1.6005e-012 -1.37987e-011
203
root  46.8631 39.4128 -20.5479 -1.18643 14.994 6.41557
RightUpLeg  -22.0649 -19.6656 3.18869
RightLeg  21.0117 -7.84003 -2.24609
RightFoot  -3.34346 0.0544192 -1.10298
RightToes  -4.65663e-010 0 -3.6325e-017
Spine  8.30056 -2.70084 -3.59603
Spine1  7.26212 -3.31446 0.434702
HEad  1.20808 -5.46091 2.77881
LeftShoulder1  7.38831 -11.0754 -44.1136
LeftArm  -13.7064 5.5112 -8.1298
LeftForeArm  17.1756 -16.4442 -4.00175
LeftHand  -0.244104 0.0205437 5.32207
RightShoulder  5.27852 8.64161 37.4377
RightArm  5.47294 -18.5274 28.5323
RightForeArm  4.65366 16.0838 6.49652
RightHand  -0.651613 0.132152 -13.7455
LeftUpLeg  11.6317 7.05052 1.37364
LeftLeg  7.37192 21.5938 -3.41191
LeftFoot  -9.96191 0.136762 -6.40138
LeftToes  -7.27628e-011 -1.6005e-012 -1.37987e-011
204
root  47.4473 39.2421 -19.2891 -0.699234 14.1338 6.57376
RightUpLeg  -19.433 -15.2903 1.43002
RightLeg  5.88557 -21.1934 3.91267
RightFoot  -3.34788 0.0495096 -1.03351
RightToes  -4.65663e-010 0 -3.6325e-017
Spine  7.17737 -3.08666 -4.29632
Spine1  7.68368 -3.87481 1.23458
HEad  0.183048 -7.32737 3.88786
LeftShoulder1  7.23539 -11.004 -43.3738
LeftArm  -15.4315 3.64341 -6.09135
LeftForeArm  17.4641 -17.8848 -3.76232
LeftHand  -0.244104 0.0205437 5.32207
RightShoulder  5.14308 8.40887 37.1593
RightArm  1.27339 -20.144 28.4596
RightForeArm  5.99106 14.7644 6.53369
RightHand  -0.663797 0.106961 -14.0594
LeftUpLeg  14.3414 6.77283 0.85779
LeftLeg  5.45866 22.0288 -4.04715
LeftFoot  -10.506 0.122934 -8.3445
LeftToes  -7.27628e-011 -1.6005e-012 -1.37987e-011
205
root  47.9757 38.9077 -17.8565 -0.107285 13.2612 7.48802
RightUpLeg  -16.9709 -5.60685 -2.22473
RightLeg  -7.09346 -35.011 11.324
RightFoot  -4.52972 -0.0167093 -0.194852
RightToes  -4.65663e-010 0 -3.6325e-017
Spine  5.85334 -3.26883 -5.70231
Spine1  7.57545 -4.12952 1.7463
HEad  -0.751428 -10.0643 4.56688
LeftShoulder1  6.95588 -10.7461 -42.394
LeftArm  -17.727 2.22939 -5.34917
LeftForeArm  19.3241 -19.6974 -3.57586
LeftHand  -0.244104 0.0205437 5.32207
RightShoulder  5.06059 8.21897 37.1543
RightArm  -4.67154 -21.8583 28.5784
RightForeArm  8.12699 12.1145 6.44008
RightHand  -0.690087 0.26795 -14.2079
LeftUpLeg  16.1466 6.74071 -0.0819017
LeftLeg  6.2798 22.175 -3.92301
LeftFoot  -11.2678 0.0740656 -10.1202
LeftToes  -7.27628e-011 -1.6005e-012 -1.37987e-011
206
root  48.4716 38.603 -16.3494 0.24231 12.2869 8.31084
RightUpLeg  -17.2645 -5.80379 -2.05224
RightLeg  -8.40132 -35.1181 11.3767
RightFoot  -5.74762 -0.036443 -0.00689871
RightToes  -4.65663e-010 0 -3.6325e-017
Spine  4.74101 -3.42482 -6.13775
Spine1  7.45353 -4.22446 1.75914
HEad  -1.79959 -13.0417 4.69989
LeftShoulder1  6.6926 -10.4472 -41.6117
LeftArm  -20.0732 1.59013 -5.35053
LeftForeArm  21.3224 -22.3939 -3.72264
LeftHand  -0.244104 0.0205437 5.32207
RightShoulder  5.01857 8.11213 37.1882
RightArm  -9.96298 -23.557 29.1446
RightForeArm  8.45135 9.27875 5.80202
RightHand  -0.780047 0.676693 -14.9807
LeftUpLeg  17.8662 6.87976 -0.731648
LeftLeg  7.94538 22.3944 -3.60761
LeftFoot  -11.5158 0.0509892 -11.7584
LeftToes  -7.27628e-011 -1.6005e-012 -1.37987e-011
